<?xml version="1.0" encoding="UTF-8" standalone="no"?>
<!DOCTYPE svg PUBLIC "-//W3C//DTD SVG 1.1//EN"
 "http://www.w3.org/Graphics/SVG/1.1/DTD/svg11.dtd">
<!-- Generated by graphviz version 2.42.4 (0)
 -->
<!-- Title: G Pages: 1 -->
<svg width="996pt" height="151pt"
 viewBox="0.00 0.00 996.28 150.74" xmlns="http://www.w3.org/2000/svg" xmlns:xlink="http://www.w3.org/1999/xlink">
<g id="graph0" class="graph" transform="scale(1 1) rotate(0) translate(4 146.74)">
<title>G</title>
<polygon fill="white" stroke="transparent" points="-4,4 -4,-146.74 992.28,-146.74 992.28,4 -4,4"/>
<!-- G -->
<g id="node1" class="node">
<title>G</title>
<polygon fill="#d1e8ff" stroke="black" points="529,-142.74 422,-142.74 422,-89.74 529,-89.74 529,-142.74"/>
<text text-anchor="middle" x="475.5" y="-127.54" font-family="Arial" font-size="14.00">Brama / DHCP</text>
<text text-anchor="middle" x="475.5" y="-112.54" font-family="Arial" font-size="14.00">192.168.88.1</text>
<text text-anchor="middle" x="475.5" y="-97.54" font-family="Arial" font-size="14.00">255.255.255.0</text>
</g>
<!-- S -->
<g id="node2" class="node">
<title>S</title>
<polygon fill="#d1ffd1" stroke="black" points="119,-53.37 0,-53.37 0,-0.37 119,-0.37 119,-53.37"/>
<text text-anchor="middle" x="59.5" y="-38.17" font-family="Arial" font-size="14.00">Serwer FreeBSD</text>
<text text-anchor="middle" x="59.5" y="-23.17" font-family="Arial" font-size="14.00">192.168.88.202</text>
<text text-anchor="middle" x="59.5" y="-8.17" font-family="Arial" font-size="14.00">(SSH + Apache)</text>
</g>
<!-- G&#45;&gt;S -->
<g id="edge1" class="edge">
<title>G&#45;&gt;S</title>
<path fill="none" stroke="black" d="M421.74,-108.94C354.79,-100.39 236.97,-83.03 129.1,-54.01"/>
<polygon fill="black" stroke="black" points="129.93,-50.61 119.37,-51.35 128.09,-57.36 129.93,-50.61"/>
</g>
<!-- C1 -->
<g id="node3" class="node">
<title>C1</title>
<ellipse fill="#ffeeba" stroke="black" cx="214.5" cy="-26.87" rx="77.56" ry="26.74"/>
<text text-anchor="middle" x="214.5" y="-30.67" font-family="Arial" font-size="14.00">PC1</text>
<text text-anchor="middle" x="214.5" y="-15.67" font-family="Arial" font-size="14.00">192.168.88.100</text>
</g>
<!-- G&#45;&gt;C1 -->
<g id="edge2" class="edge">
<title>G&#45;&gt;C1</title>
<path fill="none" stroke="black" d="M421.74,-97.24C380.26,-83.36 322.73,-64.1 278.81,-49.4"/>
<polygon fill="black" stroke="black" points="279.68,-46 269.09,-46.14 277.46,-52.64 279.68,-46"/>
</g>
<!-- C2 -->
<g id="node4" class="node">
<title>C2</title>
<ellipse fill="#ffeeba" stroke="black" cx="388.5" cy="-26.87" rx="77.56" ry="26.74"/>
<text text-anchor="middle" x="388.5" y="-30.67" font-family="Arial" font-size="14.00">PC2</text>
<text text-anchor="middle" x="388.5" y="-15.67" font-family="Arial" font-size="14.00">192.168.88.101</text>
</g>
<!-- G&#45;&gt;C2 -->
<g id="edge3" class="edge">
<title>G&#45;&gt;C2</title>
<path fill="none" stroke="black" d="M449.87,-89.5C440.6,-80.19 430.03,-69.57 420.29,-59.8"/>
<polygon fill="black" stroke="black" points="422.59,-57.14 413.05,-52.53 417.63,-62.08 422.59,-57.14"/>
</g>
<!-- C3 -->
<g id="node5" class="node">
<title>C3</title>
<ellipse fill="#ffeeba" stroke="black" cx="562.5" cy="-26.87" rx="77.56" ry="26.74"/>
<text text-anchor="middle" x="562.5" y="-30.67" font-family="Arial" font-size="14.00">PC3</text>
<text text-anchor="middle" x="562.5" y="-15.67" font-family="Arial" font-size="14.00">192.168.88.102</text>
</g>
<!-- G&#45;&gt;C3 -->
<g id="edge4" class="edge">
<title>G&#45;&gt;C3</title>
<path fill="none" stroke="black" d="M501.13,-89.5C510.4,-80.19 520.97,-69.57 530.71,-59.8"/>
<polygon fill="black" stroke="black" points="533.37,-62.08 537.95,-52.53 528.41,-57.14 533.37,-62.08"/>
</g>
<!-- C4 -->
<g id="node6" class="node">
<title>C4</title>
<ellipse fill="#ffeeba" stroke="black" cx="736.5" cy="-26.87" rx="77.56" ry="26.74"/>
<text text-anchor="middle" x="736.5" y="-30.67" font-family="Arial" font-size="14.00">PC4</text>
<text text-anchor="middle" x="736.5" y="-15.67" font-family="Arial" font-size="14.00">192.168.88.103</text>
</g>
<!-- G&#45;&gt;C4 -->
<g id="edge5" class="edge">
<title>G&#45;&gt;C4</title>
<path fill="none" stroke="black" d="M529.26,-97.24C570.74,-83.36 628.27,-64.1 672.19,-49.4"/>
<polygon fill="black" stroke="black" points="673.54,-52.64 681.91,-46.14 671.32,-46 673.54,-52.64"/>
</g>
<!-- C5 -->
<g id="node7" class="node">
<title>C5</title>
<ellipse fill="#ffeeba" stroke="black" cx="910.5" cy="-26.87" rx="77.56" ry="26.74"/>
<text text-anchor="middle" x="910.5" y="-30.67" font-family="Arial" font-size="14.00">PC5</text>
<text text-anchor="middle" x="910.5" y="-15.67" font-family="Arial" font-size="14.00">192.168.88.104</text>
</g>
<!-- G&#45;&gt;C5 -->
<g id="edge6" class="edge">
<title>G&#45;&gt;C5</title>
<path fill="none" stroke="black" d="M529.25,-107.69C597.95,-97.59 720.35,-78.11 823.5,-53.74 830.2,-52.16 837.14,-50.36 844.05,-48.47"/>
<polygon fill="black" stroke="black" points="845.44,-51.72 854.12,-45.65 843.55,-44.98 845.44,-51.72"/>
</g>
</g>
</svg>
