<?xml version="1.0" encoding="UTF-8" standalone="no"?>
<!-- Generated by graphviz version 2.42.4 (0)
 -->

<!-- Title: G Pages: 1 -->

<svg
   width="572.14703pt"
   height="660.28375pt"
   viewBox="0 0 572.30789 659.14683"
   version="1.1"
   id="svg116"
   sodipodi:docname="network.svg"
   inkscape:version="1.2.2 (b0a8486541, 2022-12-01)"
   xmlns:inkscape="http://www.inkscape.org/namespaces/inkscape"
   xmlns:sodipodi="http://sodipodi.sourceforge.net/DTD/sodipodi-0.dtd"
   xmlns="http://www.w3.org/2000/svg"
   xmlns:svg="http://www.w3.org/2000/svg">
  <sodipodi:namedview
     id="namedview86"
     pagecolor="#ffffff"
     bordercolor="#000000"
     borderopacity="0.25"
     inkscape:showpageshadow="2"
     inkscape:pageopacity="0.0"
     inkscape:pagecheckerboard="0"
     inkscape:deskcolor="#d1d1d1"
     inkscape:document-units="pt"
     showgrid="false"
     inkscape:zoom="0.92119478"
     inkscape:cx="660.01242"
     inkscape:cy="426.0771"
     inkscape:window-width="1920"
     inkscape:window-height="1043"
     inkscape:window-x="0"
     inkscape:window-y="0"
     inkscape:window-maximized="1"
     inkscape:current-layer="svg116" />
  <defs
     id="defs120" />
  <rect
     style="fill:#ffffff;stroke:none;stroke-width:0.133816;stroke-linecap:round;stroke-miterlimit:0"
     id="rect977"
     width="570.27606"
     height="660.17676"
     x="1.9647591"
     y="-0.51493722" />
  <!-- Czarna kropka -->
  <!-- Trzy zakrzywione linie -->
  <g
     id="g6347"
     transform="matrix(0.54206327,0,0,0.54199981,117.72648,208.37402)"
     inkscape:export-filename="g6347.svg"
     inkscape:export-xdpi="96"
     inkscape:export-ydpi="96">
    <g
       id="g7055">
      <rect
         style="fill:#ffffff;fill-opacity:1;stroke:#000000;stroke-width:0.247303;stroke-linecap:round;stroke-miterlimit:0;stroke-dasharray:none;stroke-opacity:1"
         id="rect6854"
         width="1055.548"
         height="1218.3314"
         x="-217.05852"
         y="-385.55048" />
      <g
         id="g6852">
        <g
           id="node1"
           class="node"
           transform="matrix(1.8454398,0,0,1.7556862,-471.56321,369.23243)">
          <title
             id="title6">G</title>
          <polygon
             fill="#d1e8ff"
             stroke="#000000"
             points="529,-89.74 529,-142.74 422,-142.74 422,-89.74 "
             id="polygon8" />
          <text
             text-anchor="middle"
             x="475.5"
             y="-127.54"
             font-family="Arial"
             font-size="14px"
             id="text10">ROUTER+NAT</text>
          <text
             text-anchor="middle"
             x="475.5"
             y="-112.54"
             font-family="Arial"
             font-size="14px"
             id="text12">192.168.88.1</text>
          <text
             text-anchor="middle"
             x="475.5"
             y="-97.540001"
             font-family="Arial"
             font-size="14px"
             id="text14">255.255.255.0</text>
        </g>
        <g
           id="node1-6"
           class="node"
           transform="matrix(1.8494352,0,0,1.0184021,-473.90415,141.16106)"
           style="fill:#d1e8ff;fill-opacity:1">
          <title
             id="title6-2">G</title>
          <polygon
             fill="#d1e8ff"
             stroke="#000000"
             points="422,-142.74 422,-89.74 529,-89.74 529,-142.74 "
             id="polygon8-9"
             style="fill:#d1e8ff;fill-opacity:1" />
          <text
             text-anchor="middle"
             x="597.35211"
             y="-97.024384"
             font-family="Arial"
             font-size="17.5877px"
             id="text10-1"
             style="fill:#000000;fill-opacity:1;stroke-width:1.25626"
             transform="scale(0.79601294,1.256261)">204.11.113.42</text>
          <text
             text-anchor="middle"
             x="475.5"
             y="-112.54"
             font-family="Arial"
             font-size="14px"
             id="text12-2"
             style="fill:#d1e8ff;fill-opacity:1">192.168.88.1</text>
          <text
             text-anchor="middle"
             x="475.5"
             y="-97.540001"
             font-family="Arial"
             font-size="14px"
             id="text14-7"
             style="fill:#000000;fill-opacity:1" />
        </g>
        <g
           id="node2"
           class="node"
           transform="matrix(1.845019,0,0,1.845019,584.84496,516.72031)">
          <title
             id="title17">S</title>
          <polygon
             fill="#d1ffd1"
             stroke="#000000"
             points="0,-53.37 0,-0.37 119,-0.37 119,-53.37 "
             id="polygon19" />
          <text
             text-anchor="middle"
             x="59.5"
             y="-38.169998"
             font-family="Arial"
             font-size="14px"
             id="text21">Serwer FreeBSD</text>
          <text
             text-anchor="middle"
             x="59.5"
             y="-23.17"
             font-family="Arial"
             font-size="14px"
             id="text23">192.168.88.202</text>
          <text
             text-anchor="middle"
             x="59.5"
             y="-8.1700001"
             font-family="Arial"
             font-size="14px"
             id="text25">(SSH + Apache)</text>
        </g>
        <g
           id="g4156"
           transform="matrix(1.845019,0,0,1.845019,-514.82178,-275.21887)">
          <polygon
             fill="#d1ffd1"
             stroke="#000000"
             points="119,-53.37 0,-53.37 0,-0.37 119,-0.37 "
             id="polygon19-2"
             transform="matrix(1.0014456,0,0,0.68450708,596.82847,333.58952)" />
          <text
             text-anchor="middle"
             x="641.52045"
             y="316.55121"
             font-family="Arial"
             font-size="13.7605px"
             id="text21-9"
             transform="scale(1.0175477,0.9827549)"
             style="stroke-width:0.982896">Printer</text>
          <text
             text-anchor="middle"
             x="645.1178"
             y="332.07977"
             font-family="Arial"
             font-size="13.7605px"
             id="text23-1"
             transform="scale(1.0175477,0.9827549)"
             style="stroke-width:0.982896">192.168.88.203</text>
        </g>
        <g
           id="node3"
           class="node"
           transform="matrix(1.845019,0,0,1.845019,-412.44343,512.25568)">
          <title
             id="title35">C1</title>
          <ellipse
             fill="#ffeeba"
             stroke="#000000"
             cx="214.5"
             cy="-26.870001"
             rx="77.559998"
             ry="26.74"
             id="ellipse37" />
          <text
             text-anchor="middle"
             x="214.5"
             y="-30.67"
             font-family="Arial"
             font-size="14px"
             id="text39">PC1</text>
          <text
             text-anchor="middle"
             x="214.5"
             y="-15.67"
             font-family="Arial"
             font-size="14px"
             id="text41">192.168.88.100</text>
        </g>
        <g
           id="node3-3"
           class="node"
           transform="matrix(1.845019,0,0,1.845019,-445.91895,-237.43457)">
          <title
             id="title35-6">C1</title>
          <ellipse
             fill="#ffeeba"
             stroke="#000000"
             cx="214.5"
             cy="-26.870001"
             rx="77.559998"
             ry="26.74"
             id="ellipse37-7" />
          <text
             text-anchor="middle"
             x="214.5"
             y="-30.67"
             font-family="Arial"
             font-size="14px"
             id="text39-5">Kowalski</text>
          <text
             text-anchor="middle"
             x="214.5"
             y="-15.67"
             font-family="Arial"
             font-size="14px"
             id="text41-3">202.22.88.16</text>
        </g>
        <g
           id="node4"
           class="node"
           transform="matrix(1.845019,0,0,1.845019,-124.84939,750.96251)">
          <title
             id="title51">C2</title>
          <ellipse
             fill="#ffeeba"
             stroke="#000000"
             cx="388.5"
             cy="-26.870001"
             rx="77.559998"
             ry="26.74"
             id="ellipse53" />
          <text
             text-anchor="middle"
             x="388.5"
             y="-30.67"
             font-family="Arial"
             font-size="14px"
             id="text55">PC2</text>
          <text
             text-anchor="middle"
             x="388.5"
             y="-15.67"
             font-family="Arial"
             font-size="14px"
             id="text57">192.168.88.103</text>
        </g>
        <g
           id="node5"
           class="node"
           transform="matrix(1.845019,0,0,1.845019,-1053.4184,686.84337)">
          <title
             id="title67">C3</title>
          <ellipse
             fill="#ffeeba"
             stroke="#000000"
             cx="562.5"
             cy="-26.870001"
             rx="77.559998"
             ry="26.74"
             id="ellipse69" />
          <text
             text-anchor="middle"
             x="562.5"
             y="-30.67"
             font-family="Arial"
             font-size="14px"
             id="text71">PC3</text>
          <text
             text-anchor="middle"
             x="562.5"
             y="-15.67"
             font-family="Arial"
             font-size="14px"
             id="text73">192.168.88.101</text>
        </g>
        <g
           id="node6"
           class="node"
           transform="matrix(1.845019,0,0,1.845019,-1124.5636,780.69363)">
          <title
             id="title83">C4</title>
          <ellipse
             fill="#ffeeba"
             stroke="#000000"
             cx="736.5"
             cy="-26.870001"
             rx="77.559998"
             ry="26.74"
             id="ellipse85" />
          <text
             text-anchor="middle"
             x="736.5"
             y="-30.67"
             font-family="Arial"
             font-size="14px"
             id="text87">PC4</text>
          <text
             text-anchor="middle"
             x="736.5"
             y="-15.67"
             font-family="Arial"
             font-size="14px"
             id="text89">192.168.88.102</text>
        </g>
        <g
           id="g3842"
           transform="matrix(1.845019,0,0,1.845019,-473.6578,-0.94607703)">
          <g
             id="g1692"
             transform="rotate(158.1657,479.59024,-123.04043)">
            <g
               id="g1614">
              <path
                 id="path1685"
                 style="fill:#d1e8ff;stroke-width:1.13418;stroke-linecap:square;stroke-miterlimit:0"
                 d="m 497.35507,-143.35201 a 40.830013,40.830013 0 0 1 -40.83002,40.83002 40.830013,40.830013 0 0 1 -40.83001,-40.83002 40.830013,40.830013 0 0 1 40.83001,-40.83001 40.830013,40.830013 0 0 1 40.83002,40.83001 z" />
              <path
                 id="path1682"
                 style="fill:#d1e8ff;stroke-width:1.13418;stroke-linecap:square;stroke-miterlimit:0"
                 d="m 543.30847,-143.06099 a 40.830013,40.830013 0 0 1 -40.83002,40.83001 40.830013,40.830013 0 0 1 -40.83001,-40.83001 40.830013,40.830013 0 0 1 40.83001,-40.83001 40.830013,40.830013 0 0 1 40.83002,40.83001 z" />
              <path
                 id="path1679"
                 style="fill:#d1e8ff;stroke-width:1.13418;stroke-linecap:square;stroke-miterlimit:0"
                 d="m 497.53201,-103.01986 a 40.830013,40.830013 0 0 1 -40.83001,40.830014 40.830013,40.830013 0 0 1 -40.83002,-40.830014 40.830013,40.830013 0 0 1 40.83002,-40.83001 40.830013,40.830013 0 0 1 40.83001,40.83001 z" />
              <path
                 id="path1676"
                 style="fill:#d1e8ff;stroke-width:1.13418;stroke-linecap:square;stroke-miterlimit:0"
                 d="m 543.48544,-102.72884 a 40.830013,40.830013 0 0 1 -40.83001,40.83001 40.830013,40.830013 0 0 1 -40.83002,-40.83001 40.830013,40.830013 0 0 1 40.83002,-40.83002 40.830013,40.830013 0 0 1 40.83001,40.83002 z" />
            </g>
          </g>
          <text
             xml:space="preserve"
             style="font-size:14.004px;fill:#000000;fill-opacity:1;stroke:none;stroke-width:1.13418;stroke-linecap:square;stroke-miterlimit:0"
             x="455.5264"
             y="-128.75009"
             id="text3832"><tspan
               id="tspan3830"
               style="stroke-width:1.13418"
               x="455.5264"
               y="-128.75009">WAN</tspan></text>
        </g>
        <text
           xml:space="preserve"
           style="font-size:14.004px;fill:#000000;fill-opacity:1;stroke:none;stroke-width:1.13418;stroke-linecap:square;stroke-miterlimit:0"
           x="460.18326"
           y="232.55498"
           id="text9139"
           transform="matrix(1.845019,0,0,1.845019,-500.66955,-384.7468)"><tspan
             id="tspan9137"
             style="stroke-width:1.13418"
             x="460.18326"
             y="232.55498">MODEM</tspan></text>
        <path
           style="fill:#000000;fill-opacity:1;stroke:#000000;stroke-width:0.934263;stroke-linecap:square;stroke-miterlimit:0;stroke-dasharray:none;stroke-opacity:1"
           d="m 492.24075,235.70186 c 0,12.24037 0,24.47999 0,36.71886"
           id="path10743"
           transform="matrix(1.845019,0,0,1.845019,-500.66955,-384.7468)" />
        <path
           style="fill:#000000;fill-opacity:1;stroke:#000000;stroke-width:0.93426;stroke-linecap:square;stroke-miterlimit:0;stroke-dasharray:none;stroke-opacity:1"
           d="m 492.61868,151.20839 c 0,18.30512 0,36.60949 0,54.91311"
           id="path10747"
           transform="matrix(1.845019,0,0,1.845019,-500.66955,-384.7468)" />
        <path
           style="fill:#ffffff;stroke:#000000;stroke-width:1.03429;stroke-linecap:square;stroke-miterlimit:0;stroke-dasharray:none;stroke-opacity:1"
           d="m 340.59462,461.42525 c 0,0 151.39007,-137.34905 151.39007,-137.34905"
           id="path4279"
           transform="matrix(1.845019,0,0,1.845019,-500.66955,-384.7468)" />
        <path
           style="fill:#ffffff;stroke:#000000;stroke-width:1.03429;stroke-linecap:square;stroke-miterlimit:0;stroke-dasharray:none;stroke-opacity:1"
           d="m 339.59888,557.4 c 0,0 151.73771,-233.7674 151.73771,-233.7674"
           id="path4283"
           transform="matrix(1.845019,0,0,1.845019,-500.66955,-384.7468)" />
        <path
           style="fill:#ffffff;stroke:#000000;stroke-width:1.03429;stroke-linecap:square;stroke-miterlimit:0;stroke-dasharray:none;stroke-opacity:1"
           d="m 404.3927,577.64355 c 0,0 87.36076,-254.9249 87.36076,-254.9249"
           id="path4287"
           transform="matrix(1.845019,0,0,1.845019,-500.66955,-384.7468)" />
        <path
           style="fill:#ffffff;stroke:#000000;stroke-width:1.03429;stroke-linecap:square;stroke-miterlimit:0;stroke-dasharray:none;stroke-opacity:1"
           d="m 583.492,561.02903 c 0,0 -91.60483,-239.25263 -91.60483,-239.25263"
           id="path4291"
           transform="matrix(1.845019,0,0,1.845019,-500.66955,-384.7468)" />
        <path
           style="fill:#ffffff;stroke:#000000;stroke-width:1.03429;stroke-linecap:square;stroke-miterlimit:0;stroke-dasharray:none;stroke-opacity:1"
           d="m 589.26194,382.68479 c 0,0 -97.29298,-60.34681 -97.29298,-60.34681"
           id="path4303"
           transform="matrix(1.845019,0,0,1.845019,-500.66955,-384.7468)" />
        <path
           style="fill:#ffffff;stroke:#000000;stroke-width:1.03429;stroke-linecap:square;stroke-miterlimit:0;stroke-dasharray:none;stroke-opacity:1"
           d="m 424.94337,66.398811 c 0,0 -104.95556,-6.925258 -104.95556,-6.925258"
           id="path4464"
           transform="matrix(1.845019,0,0,1.845019,-500.66955,-384.7468)" />
        <path
           style="fill:#ffffff;stroke:#000000;stroke-width:1.03429;stroke-linecap:square;stroke-miterlimit:0;stroke-dasharray:none;stroke-opacity:1"
           d="m 492.59088,322.99482 c 0,0 96.0326,136.30944 96.0326,136.30944"
           id="path4468"
           transform="matrix(1.845019,0,0,1.845019,-500.66955,-384.7468)" />
        <g
           id="g5329"
           transform="matrix(1.845019,0,0,1.845019,-540.29005,-324.72911)">
          <rect
             style="fill:#ffeeba;fill-opacity:1;stroke:#000000;stroke-width:0.857666;stroke-linecap:square;stroke-miterlimit:0;stroke-dasharray:none;stroke-opacity:1"
             id="rect4624"
             width="108.13799"
             height="54.75544"
             x="228.70197"
             y="310.75662" />
          <text
             xml:space="preserve"
             style="font-size:14.004px;fill:#000000;fill-opacity:1;stroke:none;stroke-width:1.03429;stroke-linecap:square;stroke-miterlimit:0;stroke-dasharray:none;stroke-opacity:1"
             x="249.33928"
             y="329.69427"
             id="text5058"><tspan
               id="tspan5056"
               style="fill:#000000;fill-opacity:1;stroke:none;stroke-width:1.03429"
               x="249.33928"
               y="329.69427">Tablet</tspan></text>
          <text
             xml:space="preserve"
             style="font-size:14.004px;fill:#000000;fill-opacity:1;stroke:none;stroke-width:1.03429;stroke-linecap:square;stroke-miterlimit:0;stroke-dasharray:none;stroke-opacity:1"
             x="236.90475"
             y="348.53351"
             id="text5322"><tspan
               id="tspan5320"
               style="stroke-width:1.03429"
               x="236.90475"
               y="348.53351">192.168.88.50</tspan></text>
        </g>
        <g
           id="g6353"
           transform="rotate(45,84.651314,244.7585)">
          <circle
             cx="87.889297"
             cy="242.42114"
             r="3.7510543"
             fill="#000000"
             id="circle6325"
             style="stroke-width:0.750211" />
          <path
             d="m 72.885079,231.16798 q 15.004218,-11.25316 30.008441,0"
             stroke="#000000"
             stroke-width="4"
             fill="none"
             id="path6327" />
          <path
             d="m 69.134025,223.66588 q 18.755272,-15.00422 37.510545,0"
             stroke="#000000"
             stroke-width="4"
             fill="none"
             id="path6329" />
          <path
             d="m 65.382971,216.16377 q 22.506326,-18.75528 45.012649,0"
             stroke="#000000"
             stroke-width="4"
             fill="none"
             id="path6331" />
        </g>
      </g>
    </g>
  </g>
</svg>
